<svg width="32" height="32" viewBox="0 0 32 32" fill="none" xmlns="http://www.w3.org/2000/svg">
  <path d="M30.6663 10.6667V24C30.6663 25.4667 29.4663 26.6667 27.9997 26.6667H6.66634C5.93301 26.6667 5.33301 26.0667 5.33301 25.3333C5.33301 24.6 5.93301 24 6.66634 24H27.9997V10.6667C27.9997 9.93333 28.5997 9.33333 29.333 9.33333C30.0663 9.33333 30.6663 9.93333 30.6663 10.6667ZM5.33301 21.3333C3.11967 21.3333 1.33301 19.5467 1.33301 17.3333V9.33333C1.33301 7.11999 3.11967 5.33333 5.33301 5.33333H21.333C23.5463 5.33333 25.333 7.11999 25.333 9.33333V18.6667C25.333 20.1333 24.133 21.3333 22.6663 21.3333H5.33301ZM9.33301 13.3333C9.33301 15.5467 11.1197 17.3333 13.333 17.3333C15.5463 17.3333 17.333 15.5467 17.333 13.3333C17.333 11.12 15.5463 9.33333 13.333 9.33333C11.1197 9.33333 9.33301 11.12 9.33301 13.3333Z" fill="url(#paint0_linear_20478_1279)"/>
  <defs>
    <linearGradient id="paint0_linear_20478_1279" x1="1.33301" y1="16" x2="30.6663" y2="16" gradientUnits="userSpaceOnUse">
      <stop stop-color="#2EBB90"/>
      <stop offset="1" stop-color="#4DDF9A"/>
    </linearGradient>
  </defs>
</svg>
