<svg width="20" height="14" viewBox="0 0 20 14" fill="none" xmlns="http://www.w3.org/2000/svg">
  <path fill-rule="evenodd" clip-rule="evenodd" d="M19.5 12C19.5 13.1046 18.6046 14 17.5 14L2.5 14C1.39543 14 0.5 13.1046 0.5 12V2C0.5 0.895431 1.39543 0 2.5 0H17.5C18.6046 0 19.5 0.89543 19.5 2V12ZM3.73152 2.16883C3.7135 2.13992 3.7135 2.09366 3.73152 2.07053C3.78559 1.97802 4.5726 2.07053 4.84895 2.19774C4.86491 2.20494 4.8794 2.21175 4.89405 2.21817C5.14976 2.33033 5.45524 2.32901 14.4612 2.4001L16.3537 2.41167L16.4978 2.20352C16.7081 1.89708 16.9064 1.93755 17.1046 2.31915C17.2428 2.5909 17.2548 2.66029 17.2488 3.46397C17.2488 4.03637 17.2248 4.33703 17.1767 4.38328C17.1347 4.42376 17.1046 4.52783 17.1046 4.61456V4.77645H16.66H16.2215L16.1194 5.03664L16.0172 5.29104L14.293 5.30838L12.5688 5.32573L12.1423 5.5281L11.7097 5.73046L11.6857 6.39538C11.6617 7.18171 11.5776 7.37251 11.1991 7.56332C10.9528 7.69052 10.9047 7.6963 9.45684 7.67895C8.52565 7.66739 7.93089 7.68474 7.8588 7.72521C7.61849 7.84663 7.55241 7.96227 7.55241 8.2687C7.55241 8.4306 7.51035 8.70813 7.46229 8.88158C7.45486 8.9084 7.44456 8.9453 7.43192 8.99059C7.36279 9.23821 7.22372 9.73639 7.10183 10.2056C6.8435 11.1481 6.83148 11.2175 6.9216 11.3504C6.97567 11.4256 6.9997 11.5355 6.98168 11.5933C6.90958 11.8246 6.62122 11.8824 5.20941 11.946C3.76365 12.0104 3.49116 12.0365 3.34571 11.913C3.29534 11.8703 3.2602 11.8096 3.19684 11.7263C3.02862 11.5008 2.98657 11.4025 2.98657 11.1654C2.98657 10.4889 3.35904 8.86424 3.82764 7.49393C4.01989 6.93887 4.19411 6.39538 4.21814 6.2913C4.27221 6.03112 4.14004 5.85766 3.82164 5.76515C3.45517 5.6553 2.95052 5.33151 2.83638 5.12915C2.72223 4.91522 2.72223 4.51049 2.83037 4.1867C2.87843 4.04794 2.97455 3.6779 3.04664 3.35989C3.17281 2.8164 3.20284 2.76436 3.47319 2.49839C3.6354 2.34228 3.74954 2.19195 3.73152 2.16883ZM11.0969 6.34334C11.0969 5.74202 11.0909 5.71312 10.9648 5.67842C10.7305 5.62061 8.2493 5.64373 8.14116 5.70733C8.05104 5.75359 8.03302 5.85188 8.03302 6.27974C8.03302 6.55727 8.05104 6.82902 8.06907 6.88105C8.0991 6.962 8.29135 6.97356 9.60103 6.97356H11.0969V6.34334Z" fill="url(#paint0_linear)"/>
  <defs>
    <linearGradient id="paint0_linear" x1="0.5" y1="7" x2="19.5" y2="7" gradientUnits="userSpaceOnUse">
      <stop stop-color="#2EBB90"/>
      <stop offset="1" stop-color="#4DDF9A"/>
    </linearGradient>
  </defs>
</svg>
